<svg width="8px" height="5px" viewBox="0 0 8 5" version="1.1" xmlns="http://www.w3.org/2000/svg"
     xmlns:xlink="http://www.w3.org/1999/xlink">
    <g id="Web-Help-Overview" stroke="none" stroke-width="1" fill="none" fill-rule="evenodd">
        <g id="Web-Help-2.0-Guidelines" transform="translate(-11.000000, -223.000000)" fill="#343434">
            <g id="Side-Menu" transform="translate(0.000000, 26.000000)">
                <path d="M18.7968843,200.898442 C18.7968843,200.960942 18.7656343,201.031255 18.7187592,201.07813 L18.3281337,201.468755 C18.2812587,201.51563 18.2187586,201.54688 18.148446,201.54688 C18.0859459,201.54688 18.0156334,201.51563 17.9687583,201.468755 L14.8984421,198.398439 L11.828126,201.468755 C11.7812509,201.51563 11.7109383,201.54688 11.6484383,201.54688 C11.5859382,201.54688 11.5156256,201.51563 11.4687506,201.468755 L11.0781251,201.07813 C11.03125,201.031255 11,200.960942 11,200.898442 C11,200.835942 11.03125,200.765629 11.0781251,200.718754 L14.7187544,197.078125 C14.7656295,197.03125 14.8359421,197 14.8984421,197 C14.9609422,197 15.0312548,197.03125 15.0781299,197.078125 L18.7187592,200.718754 C18.7656343,200.765629 18.7968843,200.835942 18.7968843,200.898442 Z"
                      id=""
                      transform="translate(14.898442, 199.273440) scale(1, -1) translate(-14.898442, -199.273440) "></path>
            </g>
        </g>
    </g>
</svg>